REM DIRINDEX 1\5,1\2\6,1\2\7,1\3\8,1\3\9,1\4\10,1\4\11,1\4\12
REM DIRNAME folder01,folder02,folder03,folder04,folder05,folder06,folder07,folder08,folder09,folder10,folder11,folder12
TITLE ""
FILE "EJE_DB3000_5th_3B_08.mp3" MP3
  TRACK 01 AUDIO
    TITLE "0:"
    INDEX 01 00:00:00
  TRACK 02 AUDIO
    TITLE "10:cjc026_08577"
    INDEX 01 00:00:05
  TRACK 03 AUDIO
    TITLE "0:"
    INDEX 01 00:01:03
  TRACK 04 AUDIO
    TITLE "11:cjc026_08578"
    INDEX 01 00:01:28
  TRACK 05 AUDIO
    TITLE "0:"
    INDEX 01 00:02:16
  TRACK 06 AUDIO
    TITLE "12:cjc026_08579"
    INDEX 01 00:02:42
  TRACK 07 AUDIO
    TITLE "0:"
    INDEX 01 00:03:39
  TRACK 08 AUDIO
    TITLE "10:cjc026_08580"
    INDEX 01 00:03:66
  TRACK 09 AUDIO
    TITLE "0:"
    INDEX 01 00:04:62
  TRACK 10 AUDIO
    TITLE "11:cjc026_08581"
    INDEX 01 00:05:14
  TRACK 11 AUDIO
    TITLE "0:"
    INDEX 01 00:06:04
  TRACK 12 AUDIO
    TITLE "12:cjc026_08582"
    INDEX 01 00:06:30
  TRACK 13 AUDIO
    TITLE "0:"
    INDEX 01 00:07:27
  TRACK 14 AUDIO
    TITLE "10:cjc026_08583"
    INDEX 01 00:07:52
  TRACK 15 AUDIO
    TITLE "0:"
    INDEX 01 00:08:50
  TRACK 16 AUDIO
    TITLE "11:cjc026_08584"
    INDEX 01 00:09:02
  TRACK 17 AUDIO
    TITLE "0:"
    INDEX 01 00:09:65
  TRACK 18 AUDIO
    TITLE "12:cjc026_08585"
    INDEX 01 00:10:18
  TRACK 19 AUDIO
    TITLE "0:"
    INDEX 01 00:11:15
  TRACK 20 AUDIO
    TITLE "10:cjc026_08586"
    INDEX 01 00:11:40
  TRACK 21 AUDIO
    TITLE "0:"
    INDEX 01 00:12:44
  TRACK 22 AUDIO
    TITLE "11:cjc026_08587"
    INDEX 01 00:12:69
  TRACK 23 AUDIO
    TITLE "0:"
    INDEX 01 00:13:65
  TRACK 24 AUDIO
    TITLE "12:cjc026_08588"
    INDEX 01 00:14:15
  TRACK 25 AUDIO
    TITLE "0:"
    INDEX 01 00:15:19
  TRACK 26 AUDIO
    TITLE "10:cjc026_08589"
    INDEX 01 00:15:44
  TRACK 27 AUDIO
    TITLE "0:"
    INDEX 01 00:16:46
  TRACK 28 AUDIO
    TITLE "11:cjc026_08590"
    INDEX 01 00:16:71
  TRACK 29 AUDIO
    TITLE "0:"
    INDEX 01 00:17:70
  TRACK 30 AUDIO
    TITLE "12:cjc026_08591"
    INDEX 01 00:18:21
  TRACK 31 AUDIO
    TITLE "0:"
    INDEX 01 00:19:22
  TRACK 32 AUDIO
    TITLE "10:cjc026_08592"
    INDEX 01 00:19:48
  TRACK 33 AUDIO
    TITLE "0:"
    INDEX 01 00:20:41
  TRACK 34 AUDIO
    TITLE "11:cjc026_08593"
    INDEX 01 00:20:67
  TRACK 35 AUDIO
    TITLE "0:"
    INDEX 01 00:21:70
  TRACK 36 AUDIO
    TITLE "12:cjc026_08594"
    INDEX 01 00:22:21
  TRACK 37 AUDIO
    TITLE "0:"
    INDEX 01 00:23:14
  TRACK 38 AUDIO
    TITLE "10:cjc026_08595"
    INDEX 01 00:23:40
  TRACK 39 AUDIO
    TITLE "0:"
    INDEX 01 00:24:39
  TRACK 40 AUDIO
    TITLE "11:cjc026_08596"
    INDEX 01 00:24:65
  TRACK 41 AUDIO
    TITLE "0:"
    INDEX 01 00:25:50
  TRACK 42 AUDIO
    TITLE "12:cjc026_08597"
    INDEX 01 00:26:01
  TRACK 43 AUDIO
    TITLE "0:"
    INDEX 01 00:27:00
  TRACK 44 AUDIO
    TITLE "10:cjc026_08598"
    INDEX 01 00:27:26
  TRACK 45 AUDIO
    TITLE "0:"
    INDEX 01 00:28:27
  TRACK 46 AUDIO
    TITLE "11:cjc026_08599"
    INDEX 01 00:28:53
  TRACK 47 AUDIO
    TITLE "0:"
    INDEX 01 00:29:38
  TRACK 48 AUDIO
    TITLE "12:cjc026_08600"
    INDEX 01 00:29:64
  TRACK 49 AUDIO
    TITLE "0:"
    INDEX 01 00:30:65
  TRACK 50 AUDIO
    TITLE "10:cjc026_08601"
    INDEX 01 00:31:16
  TRACK 51 AUDIO
    TITLE "0:"
    INDEX 01 00:32:19
  TRACK 52 AUDIO
    TITLE "11:cjc026_08602"
    INDEX 01 00:32:45
  TRACK 53 AUDIO
    TITLE "0:"
    INDEX 01 00:33:38
  TRACK 54 AUDIO
    TITLE "12:cjc026_08603"
    INDEX 01 00:33:62
  TRACK 55 AUDIO
    TITLE "0:"
    INDEX 01 00:34:67
  TRACK 56 AUDIO
    TITLE "10:cjc026_08604"
    INDEX 01 00:35:19
  TRACK 57 AUDIO
    TITLE "0:"
    INDEX 01 00:36:15
  TRACK 58 AUDIO
    TITLE "11:cjc026_08605"
    INDEX 01 00:36:42
  TRACK 59 AUDIO
    TITLE "0:"
    INDEX 01 00:37:36
  TRACK 60 AUDIO
    TITLE "12:cjc026_08606"
    INDEX 01 00:37:63
  TRACK 61 AUDIO
    TITLE "0:"
    INDEX 01 00:38:61
  TRACK 62 AUDIO
    TITLE "10:cjc026_08607"
    INDEX 01 00:39:11
  TRACK 63 AUDIO
    TITLE "0:"
    INDEX 01 00:40:11
  TRACK 64 AUDIO
    TITLE "11:cjc026_08608"
    INDEX 01 00:40:38
  TRACK 65 AUDIO
    TITLE "0:"
    INDEX 01 00:41:44
  TRACK 66 AUDIO
    TITLE "12:cjc026_08609"
    INDEX 01 00:41:69
  TRACK 67 AUDIO
    TITLE "0:"
    INDEX 01 00:42:68
  TRACK 68 AUDIO
    TITLE "10:cjc026_08610"
    INDEX 01 00:43:21
  TRACK 69 AUDIO
    TITLE "0:"
    INDEX 01 00:44:26
  TRACK 70 AUDIO
    TITLE "11:cjc026_08611"
    INDEX 01 00:44:52
  TRACK 71 AUDIO
    TITLE "0:"
    INDEX 01 00:45:47
  TRACK 72 AUDIO
    TITLE "12:cjc026_08612"
    INDEX 01 00:46:00
  TRACK 73 AUDIO
    TITLE "0:"
    INDEX 01 00:47:05
